# MagicaVoxel @ Ephtracy

# group
o 

# material
mtllib ExGun.vox.mtl
usemtl palette

# normals
vn -1 0 0
vn 1 0 0
vn 0 0 1
vn 0 0 -1
vn 0 -1 0
vn 0 1 0

# texcoords
vt 0.728516 0.5
vt 0.958984 0.5
vt 0.962891 0.5
vt 0.966797 0.5
vt 0.986328 0.5
vt 0.990234 0.5
vt 0.994141 0.5

# verts
v -1.2 0.5 0.1
v -1.2 0.5 0
v -1.2 0.6 0.1
v -1.2 0.6 0
v -0.7 0.4 0.1
v -0.7 0.4 0
v -0.7 0.5 0.1
v -0.7 0.5 0
v -0.4 0.2 0.1
v -0.4 0.2 0
v -0.4 0.4 0.1
v -0.4 0.4 0
v 0 0 0.1
v 0 0 0
v 0 0.2 0.1
v 0 0.2 0
v 0 0.7 0.1
v 0 0.7 0
v 0 0.8 0.1
v 0 0.8 0
v 0.0999999 0.2 0.1
v 0.0999999 0.2 0
v 0.0999999 0.4 0.1
v 0.0999999 0.4 0
v 0.0999999 0.6 0.1
v 0.0999999 0.6 0
v 0.0999999 0.7 0.1
v 0.0999999 0.7 0
v 0.4 0.1 0.1
v 0.4 0.1 0
v 0.4 0.2 0.1
v 0.4 0.2 0
v 0.5 0.2 0.1
v 0.5 0.2 0
v 0.5 0.3 0.1
v 0.5 0.3 0
v 0.8 0.3 0.1
v 0.8 0.3 0
v 0.8 0.4 0.1
v 0.8 0.4 0
v 0.9 0.4 0.1
v 0.9 0.4 0
v 0.9 0.5 0.1
v 0.9 0.5 0
v -0.3 0.2 0.1
v -0.3 0.2 0
v -0.3 0.4 0.1
v -0.3 0.4 0
v 0.2 0 0.1
v 0.2 0 0
v 0.2 0.2 0.1
v 0.2 0.2 0
v 0.3 0.6 0.1
v 0.3 0.6 0
v 0.3 0.7 0.1
v 0.3 0.7 0
v 0.4 0.2 0.1
v 0.4 0.2 0
v 0.4 0.3 0.1
v 0.4 0.3 0
v 0.4 0.7 0.1
v 0.4 0.7 0
v 0.4 0.8 0.1
v 0.4 0.8 0
v 0.6 0.1 0.1
v 0.6 0.1 0
v 0.6 0.4 0.1
v 0.6 0.4 0
v 0.8 0.4 0.1
v 0.8 0.4 0
v 0.8 0.5 0.1
v 0.8 0.5 0
v 1.1 0.3 0.1
v 1.1 0.3 0
v 1.1 0.6 0.1
v 1.1 0.6 0
v -1.2 0.5 0.1
v -1.2 0.6 0.1
v -0.9 0.5 0.1
v -0.9 0.6 0.1
v -0.8 0.5 0.1
v -0.8 0.6 0.1
v -0.7 0.4 0.1
v -0.7 0.5 0.1
v -0.7 0.6 0.1
v -0.6 0.4 0.1
v -0.6 0.5 0.1
v -0.6 0.6 0.1
v -0.4 0.2 0.1
v -0.4 0.4 0.1
v -0.3 0.2 0.1
v -0.3 0.4 0.1
v 0 0 0.1
v 0 0.2 0.1
v 0 0.4 0.1
v 0 0.5 0.1
v 0 0.7 0.1
v 0 0.8 0.1
v 0.0999999 0.2 0.1
v 0.0999999 0.4 0.1
v 0.0999999 0.5 0.1
v 0.0999999 0.6 0.1
v 0.0999999 0.7 0.1
v 0.2 0 0.1
v 0.2 0.2 0.1
v 0.2 0.6 0.1
v 0.2 0.7 0.1
v 0.3 0.2 0.1
v 0.3 0.4 0.1
v 0.3 0.5 0.1
v 0.3 0.6 0.1
v 0.3 0.7 0.1
v 0.4 0.1 0.1
v 0.4 0.2 0.1
v 0.4 0.3 0.1
v 0.4 0.4 0.1
v 0.4 0.5 0.1
v 0.4 0.6 0.1
v 0.4 0.7 0.1
v 0.4 0.8 0.1
v 0.5 0.2 0.1
v 0.5 0.3 0.1
v 0.5 0.4 0.1
v 0.5 0.6 0.1
v 0.6 0.1 0.1
v 0.6 0.4 0.1
v 0.6 0.6 0.1
v 0.8 0.3 0.1
v 0.8 0.4 0.1
v 0.8 0.5 0.1
v 0.9 0.4 0.1
v 0.9 0.5 0.1
v 1 0.3 0.1
v 1 0.6 0.1
v 1.1 0.3 0.1
v 1.1 0.6 0.1
v -1.2 0.5 0
v -1.2 0.6 0
v -0.9 0.5 0
v -0.9 0.6 0
v -0.8 0.5 0
v -0.8 0.6 0
v -0.7 0.4 0
v -0.7 0.5 0
v -0.7 0.6 0
v -0.6 0.4 0
v -0.6 0.5 0
v -0.6 0.6 0
v -0.4 0.2 0
v -0.4 0.4 0
v -0.3 0.2 0
v -0.3 0.4 0
v 0 0 0
v 0 0.2 0
v 0 0.4 0
v 0 0.5 0
v 0 0.7 0
v 0 0.8 0
v 0.0999999 0.2 0
v 0.0999999 0.4 0
v 0.0999999 0.5 0
v 0.0999999 0.6 0
v 0.0999999 0.7 0
v 0.2 0 0
v 0.2 0.2 0
v 0.2 0.6 0
v 0.2 0.7 0
v 0.3 0.2 0
v 0.3 0.4 0
v 0.3 0.5 0
v 0.3 0.6 0
v 0.3 0.7 0
v 0.4 0.1 0
v 0.4 0.2 0
v 0.4 0.3 0
v 0.4 0.4 0
v 0.4 0.5 0
v 0.4 0.6 0
v 0.4 0.7 0
v 0.4 0.8 0
v 0.5 0.2 0
v 0.5 0.3 0
v 0.5 0.4 0
v 0.5 0.6 0
v 0.6 0.1 0
v 0.6 0.4 0
v 0.6 0.6 0
v 0.8 0.3 0
v 0.8 0.4 0
v 0.8 0.5 0
v 0.9 0.4 0
v 0.9 0.5 0
v 1 0.3 0
v 1 0.6 0
v 1.1 0.3 0
v 1.1 0.6 0
v 0 0 0.1
v 0.2 0 0.1
v 0 0 0
v 0.2 0 0
v 0.4 0.1 0.1
v 0.6 0.1 0.1
v 0.4 0.1 0
v 0.6 0.1 0
v -0.4 0.2 0.1
v -0.3 0.2 0.1
v 0.2 0.2 0.1
v 0.3 0.2 0.1
v 0.4 0.2 0.1
v -0.4 0.2 0
v -0.3 0.2 0
v 0.2 0.2 0
v 0.3 0.2 0
v 0.4 0.2 0
v 0.4 0.3 0.1
v 0.5 0.3 0.1
v 0.8 0.3 0.1
v 1 0.3 0.1
v 1.1 0.3 0.1
v 0.4 0.3 0
v 0.5 0.3 0
v 0.8 0.3 0
v 1 0.3 0
v 1.1 0.3 0
v -0.7 0.4 0.1
v -0.6 0.4 0.1
v -0.4 0.4 0.1
v -0.3 0.4 0.1
v 0 0.4 0.1
v 0.0999999 0.4 0.1
v 0.6 0.4 0.1
v 0.8 0.4 0.1
v -0.7 0.4 0
v -0.6 0.4 0
v -0.4 0.4 0
v -0.3 0.4 0
v 0 0.4 0
v 0.0999999 0.4 0
v 0.6 0.4 0
v 0.8 0.4 0
v -1.2 0.5 0.1
v -0.9 0.5 0.1
v -0.8 0.5 0.1
v -0.7 0.5 0.1
v 0.8 0.5 0.1
v 0.9 0.5 0.1
v -1.2 0.5 0
v -0.9 0.5 0
v -0.8 0.5 0
v -0.7 0.5 0
v 0.8 0.5 0
v 0.9 0.5 0
v 0 0.7 0.1
v 0.0999999 0.7 0.1
v 0.3 0.7 0.1
v 0.4 0.7 0.1
v 0 0.7 0
v 0.0999999 0.7 0
v 0.3 0.7 0
v 0.4 0.7 0
v 0 0.2 0.1
v 0.0999999 0.2 0.1
v 0.4 0.2 0.1
v 0.5 0.2 0.1
v 0 0.2 0
v 0.0999999 0.2 0
v 0.4 0.2 0
v 0.5 0.2 0
v 0.8 0.4 0.1
v 0.9 0.4 0.1
v 0.8 0.4 0
v 0.9 0.4 0
v -1.2 0.6 0.1
v -0.9 0.6 0.1
v -0.8 0.6 0.1
v -0.7 0.6 0.1
v -0.6 0.6 0.1
v 0.0999999 0.6 0.1
v 0.3 0.6 0.1
v 0.4 0.6 0.1
v 0.5 0.6 0.1
v 0.6 0.6 0.1
v 1 0.6 0.1
v 1.1 0.6 0.1
v -1.2 0.6 0
v -0.9 0.6 0
v -0.8 0.6 0
v -0.7 0.6 0
v -0.6 0.6 0
v 0.0999999 0.6 0
v 0.3 0.6 0
v 0.4 0.6 0
v 0.5 0.6 0
v 0.6 0.6 0
v 1 0.6 0
v 1.1 0.6 0
v 0 0.8 0.1
v 0.4 0.8 0.1
v 0 0.8 0
v 0.4 0.8 0

# faces
f 3/7/1 2/7/1 1/7/1
f 4/7/1 2/7/1 3/7/1
f 7/5/1 6/5/1 5/5/1
f 8/5/1 6/5/1 7/5/1
f 11/7/1 10/7/1 9/7/1
f 12/7/1 10/7/1 11/7/1
f 15/6/1 14/6/1 13/6/1
f 16/6/1 14/6/1 15/6/1
f 19/7/1 18/7/1 17/7/1
f 20/7/1 18/7/1 19/7/1
f 23/6/1 22/6/1 21/6/1
f 24/6/1 22/6/1 23/6/1
f 27/2/1 26/2/1 25/2/1
f 28/2/1 26/2/1 27/2/1
f 31/2/1 30/2/1 29/2/1
f 32/2/1 30/2/1 31/2/1
f 35/2/1 34/2/1 33/2/1
f 36/2/1 34/2/1 35/2/1
f 39/2/1 38/2/1 37/2/1
f 40/2/1 38/2/1 39/2/1
f 43/2/1 42/2/1 41/2/1
f 44/2/1 42/2/1 43/2/1
f 45/7/2 46/7/2 47/7/2
f 47/7/2 46/7/2 48/7/2
f 49/6/2 50/6/2 51/6/2
f 51/6/2 50/6/2 52/6/2
f 53/3/2 54/3/2 55/3/2
f 55/3/2 54/3/2 56/3/2
f 57/2/2 58/2/2 59/2/2
f 59/2/2 58/2/2 60/2/2
f 61/7/2 62/7/2 63/7/2
f 63/7/2 62/7/2 64/7/2
f 65/2/2 66/2/2 67/2/2
f 67/2/2 66/2/2 68/2/2
f 69/2/2 70/2/2 71/2/2
f 71/2/2 70/2/2 72/2/2
f 73/5/2 74/5/2 75/5/2
f 75/5/2 74/5/2 76/5/2
f 79/7/3 78/7/3 77/7/3
f 80/7/3 78/7/3 79/7/3
f 81/1/3 80/1/3 79/1/3
f 82/1/3 80/1/3 81/1/3
f 84/2/3 82/2/3 81/2/3
f 85/2/3 82/2/3 84/2/3
f 86/5/3 84/5/3 83/5/3
f 86/5/3 85/5/3 84/5/3
f 87/5/3 85/5/3 86/5/3
f 88/5/3 85/5/3 87/5/3
f 90/2/3 87/2/3 86/2/3
f 91/7/3 90/7/3 89/7/3
f 92/2/3 87/2/3 90/2/3
f 92/7/3 90/7/3 91/7/3
f 95/2/3 87/2/3 92/2/3
f 96/3/3 88/3/3 87/3/3
f 96/2/3 87/2/3 95/2/3
f 99/6/3 94/6/3 93/6/3
f 100/3/3 96/3/3 95/3/3
f 101/3/3 88/3/3 96/3/3
f 101/3/3 96/3/3 100/3/3
f 102/3/3 88/3/3 101/3/3
f 103/7/3 98/7/3 97/7/3
f 104/6/3 100/6/3 99/6/3
f 104/6/3 99/6/3 93/6/3
f 105/6/3 100/6/3 104/6/3
f 106/2/3 103/2/3 102/2/3
f 106/4/3 102/4/3 101/4/3
f 107/7/3 98/7/3 103/7/3
f 107/2/3 103/2/3 106/2/3
f 108/6/3 100/6/3 105/6/3
f 109/2/3 101/2/3 100/2/3
f 109/6/3 100/6/3 108/6/3
f 110/4/3 106/4/3 101/4/3
f 110/2/3 101/2/3 109/2/3
f 111/3/3 107/3/3 106/3/3
f 111/4/3 106/4/3 110/4/3
f 112/7/3 98/7/3 107/7/3
f 112/3/3 107/3/3 111/3/3
f 114/2/3 109/2/3 108/2/3
f 114/2/3 110/2/3 109/2/3
f 115/2/3 110/2/3 114/2/3
f 116/2/3 110/2/3 115/2/3
f 117/3/3 111/3/3 110/3/3
f 117/2/3 110/2/3 116/2/3
f 118/3/3 111/3/3 117/3/3
f 119/7/3 98/7/3 112/7/3
f 120/7/3 98/7/3 119/7/3
f 121/2/3 114/2/3 113/2/3
f 122/7/3 116/7/3 115/7/3
f 123/2/3 118/2/3 117/2/3
f 123/2/3 117/2/3 116/2/3
f 123/7/3 116/7/3 122/7/3
f 124/2/3 118/2/3 123/2/3
f 125/2/3 121/2/3 113/2/3
f 125/2/3 122/2/3 121/2/3
f 125/2/3 123/2/3 122/2/3
f 126/7/3 124/7/3 123/7/3
f 126/2/3 123/2/3 125/2/3
f 127/7/3 124/7/3 126/7/3
f 129/2/3 127/2/3 126/2/3
f 130/2/3 127/2/3 129/2/3
f 131/2/3 129/2/3 128/2/3
f 132/2/3 127/2/3 130/2/3
f 133/2/3 131/2/3 128/2/3
f 133/2/3 132/2/3 131/2/3
f 134/2/3 127/2/3 132/2/3
f 134/2/3 132/2/3 133/2/3
f 135/5/3 134/5/3 133/5/3
f 136/5/3 134/5/3 135/5/3
f 137/7/4 138/7/4 139/7/4
f 139/7/4 138/7/4 140/7/4
f 139/1/4 140/1/4 141/1/4
f 141/1/4 140/1/4 142/1/4
f 141/2/4 142/2/4 144/2/4
f 144/2/4 142/2/4 145/2/4
f 143/5/4 144/5/4 146/5/4
f 144/5/4 145/5/4 146/5/4
f 146/5/4 145/5/4 147/5/4
f 147/5/4 145/5/4 148/5/4
f 146/2/4 147/2/4 150/2/4
f 149/7/4 150/7/4 151/7/4
f 150/2/4 147/2/4 152/2/4
f 151/7/4 150/7/4 152/7/4
f 152/2/4 147/2/4 155/2/4
f 147/3/4 148/3/4 156/3/4
f 155/2/4 147/2/4 156/2/4
f 153/6/4 154/6/4 159/6/4
f 155/3/4 156/3/4 160/3/4
f 156/3/4 148/3/4 161/3/4
f 160/3/4 156/3/4 161/3/4
f 161/3/4 148/3/4 162/3/4
f 157/7/4 158/7/4 163/7/4
f 159/6/4 160/6/4 164/6/4
f 153/6/4 159/6/4 164/6/4
f 164/6/4 160/6/4 165/6/4
f 162/2/4 163/2/4 166/2/4
f 161/4/4 162/4/4 166/4/4
f 163/7/4 158/7/4 167/7/4
f 166/2/4 163/2/4 167/2/4
f 165/6/4 160/6/4 168/6/4
f 160/2/4 161/2/4 169/2/4
f 168/6/4 160/6/4 169/6/4
f 161/4/4 166/4/4 170/4/4
f 169/2/4 161/2/4 170/2/4
f 166/3/4 167/3/4 171/3/4
f 170/4/4 166/4/4 171/4/4
f 167/7/4 158/7/4 172/7/4
f 171/3/4 167/3/4 172/3/4
f 168/2/4 169/2/4 174/2/4
f 169/2/4 170/2/4 174/2/4
f 174/2/4 170/2/4 175/2/4
f 175/2/4 170/2/4 176/2/4
f 170/3/4 171/3/4 177/3/4
f 176/2/4 170/2/4 177/2/4
f 177/3/4 171/3/4 178/3/4
f 172/7/4 158/7/4 179/7/4
f 179/7/4 158/7/4 180/7/4
f 173/2/4 174/2/4 181/2/4
f 175/7/4 176/7/4 182/7/4
f 177/2/4 178/2/4 183/2/4
f 176/2/4 177/2/4 183/2/4
f 182/7/4 176/7/4 183/7/4
f 183/2/4 178/2/4 184/2/4
f 173/2/4 181/2/4 185/2/4
f 181/2/4 182/2/4 185/2/4
f 182/2/4 183/2/4 185/2/4
f 183/7/4 184/7/4 186/7/4
f 185/2/4 183/2/4 186/2/4
f 186/7/4 184/7/4 187/7/4
f 186/2/4 187/2/4 189/2/4
f 189/2/4 187/2/4 190/2/4
f 188/2/4 189/2/4 191/2/4
f 190/2/4 187/2/4 192/2/4
f 188/2/4 191/2/4 193/2/4
f 191/2/4 192/2/4 193/2/4
f 192/2/4 187/2/4 194/2/4
f 193/2/4 192/2/4 194/2/4
f 193/5/4 194/5/4 195/5/4
f 195/5/4 194/5/4 196/5/4
f 199/6/5 198/6/5 197/6/5
f 200/6/5 198/6/5 199/6/5
f 203/2/5 202/2/5 201/2/5
f 204/2/5 202/2/5 203/2/5
f 210/7/5 206/7/5 205/7/5
f 211/7/5 206/7/5 210/7/5
f 212/6/5 208/6/5 207/6/5
f 213/2/5 209/2/5 208/2/5
f 213/6/5 208/6/5 212/6/5
f 214/2/5 209/2/5 213/2/5
f 220/7/5 216/7/5 215/7/5
f 221/7/5 216/7/5 220/7/5
f 222/2/5 218/2/5 217/2/5
f 223/5/5 219/5/5 218/5/5
f 223/2/5 218/2/5 222/2/5
f 224/5/5 219/5/5 223/5/5
f 233/5/5 226/5/5 225/5/5
f 234/2/5 227/2/5 226/2/5
f 234/5/5 226/5/5 233/5/5
f 235/2/5 227/2/5 234/2/5
f 236/2/5 229/2/5 228/2/5
f 237/3/5 230/3/5 229/3/5
f 237/2/5 229/2/5 236/2/5
f 238/3/5 230/3/5 237/3/5
f 239/2/5 232/2/5 231/2/5
f 240/2/5 232/2/5 239/2/5
f 247/7/5 242/7/5 241/7/5
f 248/1/5 243/1/5 242/1/5
f 248/7/5 242/7/5 247/7/5
f 249/2/5 244/2/5 243/2/5
f 249/1/5 243/1/5 248/1/5
f 250/2/5 244/2/5 249/2/5
f 251/2/5 246/2/5 245/2/5
f 252/2/5 246/2/5 251/2/5
f 257/7/5 254/7/5 253/7/5
f 258/7/5 254/7/5 257/7/5
f 259/7/5 256/7/5 255/7/5
f 260/7/5 256/7/5 259/7/5
f 261/6/6 262/6/6 265/6/6
f 265/6/6 262/6/6 266/6/6
f 263/2/6 264/2/6 267/2/6
f 267/2/6 264/2/6 268/2/6
f 269/2/6 270/2/6 271/2/6
f 271/2/6 270/2/6 272/2/6
f 273/7/6 274/7/6 285/7/6
f 274/1/6 275/1/6 286/1/6
f 285/7/6 274/7/6 286/7/6
f 275/2/6 276/2/6 287/2/6
f 286/1/6 275/1/6 287/1/6
f 276/5/6 277/5/6 288/5/6
f 287/2/6 276/2/6 288/2/6
f 277/3/6 278/3/6 289/3/6
f 288/5/6 277/5/6 289/5/6
f 289/3/6 278/3/6 290/3/6
f 279/3/6 280/3/6 291/3/6
f 280/2/6 281/2/6 292/2/6
f 291/3/6 280/3/6 292/3/6
f 281/7/6 282/7/6 293/7/6
f 292/2/6 281/2/6 293/2/6
f 282/2/6 283/2/6 294/2/6
f 293/7/6 282/7/6 294/7/6
f 283/5/6 284/5/6 295/5/6
f 294/2/6 283/2/6 295/2/6
f 295/5/6 284/5/6 296/5/6
f 297/7/6 298/7/6 299/7/6
f 299/7/6 298/7/6 300/7/6
